<svg xmlns="http://www.w3.org/2000/svg" xmlns:xlink="http://www.w3.org/1999/xlink" viewBox="0 0 87 20"><g transform="translate(0 0)" id="ss11666866754_1"><path d="M 0 20 L 0 0 L 86.524 0 L 86.524 20 Z" fill="transparent"></path><path d="M 29.712 3.893 L 29.712 6.348 L 23.548 6.348 L 23.548 8.891 L 29.092 8.891 L 29.092 11.24 L 23.548 11.24 L 23.548 13.801 L 29.906 13.801 L 29.906 16.239 L 20.786 16.239 L 20.786 3.893 Z" fill="rgb(27,24,66)"></path><path d="M 41.114 3.893 L 43.876 3.893 L 43.876 16.239 L 41.114 16.239 L 35.215 8.503 L 35.215 16.239 L 32.453 16.239 L 32.453 3.893 L 35.039 3.893 L 41.114 11.841 Z" fill="rgb(27,24,66)"></path><path d="M 50.88 10.993 L 53.075 3.893 L 55.962 3.893 L 58.14 10.993 L 60.601 3.893 L 63.595 3.893 L 59.273 16.239 L 57.219 16.239 L 54.508 7.656 L 51.816 16.239 L 49.761 16.239 L 45.44 3.893 L 48.433 3.893 L 50.878 10.993 Z" fill="rgb(27,24,66)"></path><path d="M 73.31 16.239 L 72.159 13.572 L 66.97 13.572 L 65.819 16.239 L 62.878 16.239 L 68.226 3.893 L 70.901 3.893 L 76.249 16.239 L 73.308 16.239 Z M 69.573 7.567 L 68.014 11.153 L 71.113 11.153 L 69.572 7.567 Z" fill="rgb(27,24,66)"></path><path d="M 82.244 16.239 L 79.481 16.239 L 79.481 11.364 L 75.196 3.893 L 78.189 3.893 L 80.864 8.485 L 83.539 3.893 L 86.533 3.893 L 82.247 11.364 L 82.247 16.239 Z" fill="rgb(27,24,66)"></path><path d="M 13.645 2.078 L 10.815 0.451 C 9.771 -0.15 8.484 -0.15 7.44 0.451 L 4.612 2.075 L 1.688 3.758 C 0.643 4.358 0 5.471 0 6.674 L 0 13.314 C 0 14.517 0.643 15.629 1.688 16.23 L 7.44 19.546 C 8.484 20.148 9.772 20.148 10.817 19.548 L 13.622 17.936 L 13.616 17.931 L 5.093 13.029 C 4.737 12.823 4.516 12.445 4.516 12.034 L 4.516 8 C 4.516 7.589 4.737 7.209 5.093 7.003 L 8.511 5.028 C 8.892 4.808 9.364 4.808 9.746 5.028 L 13.622 7.261 L 13.695 7.305 L 18.205 4.705 L 13.643 2.077 Z" fill="rgb(84,60,153)"></path><path d="M 13.694 7.305 L 13.635 7.338 L 13.617 7.349 L 9.9 9.491 C 9.554 9.69 9.551 10.187 9.897 10.39 L 13.042 12.242 C 13.398 12.448 13.619 12.826 13.619 13.237 L 13.619 17.934 L 16.575 16.231 C 17.622 15.629 18.265 14.516 18.265 13.313 L 18.265 11.071 C 18.265 10.369 17.889 9.72 17.279 9.368 L 13.696 7.305 Z" fill="rgb(84,60,153)"></path></g></svg>