<?xml version="1.0" encoding="utf-8"?>
<!-- Generator: Adobe Illustrator 15.0.0, SVG Export Plug-In . SVG Version: 6.00 Build 0)  -->
<!DOCTYPE svg PUBLIC "-//W3C//DTD SVG 1.1//EN" "http://www.w3.org/Graphics/SVG/1.1/DTD/svg11.dtd">
<svg version="1.1" id="Capa_1" xmlns="http://www.w3.org/2000/svg" xmlns:xlink="http://www.w3.org/1999/xlink" x="0px" y="0px"
	 width="1249.888px" height="147.955px" viewBox="0 0 1249.888 147.955" enable-background="new 0 0 1249.888 147.955"
	 xml:space="preserve">
<g>
	<path fill="#337AB7" d="M698.46,0.916c6.33-1.34,12.92-1.03,19.3-0.21c-0.029,5.29-1.21,10.47-1.909,15.7
		c-3.681,25.66-7.311,51.331-10.95,76.99c-0.74,4.94-0.94,9.98-2.3,14.811c-6.391,0.79-12.891,0.66-19.29,0.08
		c0.149-5.771,1.46-11.431,2.18-17.141c3.39-24.85,6.96-49.68,10.52-74.5C696.82,11.405,697.061,6.055,698.46,0.916 M25.42,20.976
		c7.45-0.8,14.98-0.36,22.45-0.18c-0.69,5.99-3.22,11.59-3.87,17.6c6.61,0.43,13.28-0.61,19.86,0.42
		c-0.28,5.57-1.3,11.17-3.25,16.41c-6.66,1.32-13.47-0.16-20.16,0.72c-2.28,5.94-3.04,12.32-4.68,18.44
		c-1.43,6.47-3.72,13.11-2.42,19.8c5.49,3.881,12.29,0.891,18.31,0.471c-0.64,5.09-1.49,10.27-3.66,14.949
		c-5.47,1.771-11.3,1.82-16.99,1.99c-5.21-0.04-10.66-0.229-15.44-2.52c-4.6-2.24-7.02-7.51-6.91-12.471
		c0.11-5.88,1.78-11.579,3.01-17.289c1.6-7.871,4.25-15.541,5.16-23.531c-5.6-0.33-11.24,0.36-16.83-0.43
		c0.3-5.64,1.35-11.3,3.38-16.58c5.63-1.11,11.4,0.06,17.06-0.76C22.9,32.585,23.021,26.425,25.42,20.976 M617.08,23.516
		c6.8-1.16,13.79-0.84,20.66-0.48c0.01,5.43-1.56,10.7-1.87,16.11c4.38-0.88,8.63-2.46,13.11-2.85c8.59-0.86,17.66,2.4,23.41,8.91
		c4.38,5.02,5.319,11.96,5.55,18.38c0.46,15.09-5.79,30.731-17.96,40.01c-5.91,4.63-13.53,6.851-21.01,6.46
		c-4.9-0.12-9.601-1.689-14.471-2.02c-2.87,12.88-4.21,26.08-7.2,38.93c-6.63,1.5-13.56,1.03-20.25,0.311
		c-0.01-5.551,1.34-10.96,2.19-16.41c2.43-14.94,5.03-29.86,7.31-44.83c0.97-6.49,2.29-12.96,2.57-19.531
		c-5.19,3.5-8.68,8.821-13.27,12.981c0.4-6.051,2.63-11.891,6.4-16.641c3.01-4.26,7.43-7.51,9.62-12.32
		C615.04,41.835,613.98,32.215,617.08,23.516 M633.181,56.786c-1.971,5.03-2.091,10.54-3.08,15.81
		c-0.98,7.291-2.95,14.471-3.07,21.861c7.19,1.89,15.64,0.64,21.01-4.82c5.41-5.51,7.13-13.59,7.09-21.07
		c-0.109-3.76-0.449-8.05-3.359-10.78c-3.12-2.8-7.601-3.34-11.62-3.06C637.74,54.965,635.17,55.295,633.181,56.786 M1144.35,34.726
		c7.251-1.42,14.801-1.12,22.101-0.2c-0.14,3.34-0.81,6.62-1.19,9.94c4.42-2.45,8.541-5.48,13.301-7.26
		c5.539-2.11,11.869-2.7,17.529-0.71c4.061,1.54,6.29,5.52,9.37,8.33c4.011-1.25,7.38-3.86,11.13-5.68
		c6.7-3.58,14.66-5.14,22.131-3.36c5.039,1.19,9.489,5.17,10.739,10.26c0.8,3.55,0.311,7.23-0.11,10.8
		c-1.699,12.21-3.789,24.361-5.649,36.541c-0.74,4.57-1.05,9.22-2.28,13.69c-7.17,1.439-14.63,0.88-21.83-0.03
		c-0.02-3.83,0.78-7.58,1.41-11.33c1.601-9.21,2.9-18.47,4.48-27.68c0.57-3.7,1.33-7.42,1.09-11.18c-0.13-1.76-0.73-3.68-2.33-4.63
		c-3.2-1.96-7.2-1.17-10.52-0.01c-2.521,0.97-5.16,2.05-7,4.08c-1.211,2.2-1.431,4.76-1.851,7.19
		c-1.59,11.501-3.729,22.921-5.43,34.41c-0.47,3.061-0.92,6.141-1.931,9.07c-7.05,0.96-14.239,0.771-21.3,0.11
		c-0.12-3.69,0.561-7.33,1.2-10.94c1.65-9.16,3.18-18.35,4.65-27.541c0.49-3.74,1.199-7.6,0.35-11.34
		c-0.63-2.83-3.81-4.05-6.42-3.92c-4.04,0.18-7.99,1.62-11.34,3.83c-2.65,1.59-2.8,4.97-3.391,7.67
		c-1.709,11.441-3.88,22.81-5.63,34.241c-0.46,2.72-0.939,5.47-2.06,8.01c-7.03,0.76-14.16,0.65-21.19,0.05
		c0.04-2.14,0.271-4.27,0.641-6.38c2.95-16.85,5.72-33.73,8.43-50.621C1142.34,44.996,1142.61,39.695,1144.35,34.726
		 M1085.351,34.976c9.05-1.24,18.68-0.79,27.06,3.18c6.72,3.21,11.65,9.75,12.98,17.07c2.41,13.02-1.141,27.011-9.37,37.37
		c-6.74,8.5-16.96,14-27.67,15.37c-6.341,0.79-12.83,0.76-19.091-0.58c-7.459-1.53-14.67-5.899-18.18-12.859
		c-4.63-8.921-3.8-19.57-1.17-28.971C1054.33,49.565,1068.92,37.085,1085.351,34.976 M1086.42,50.916
		c-6.47,2.14-10.51,8.35-12.52,14.55c-2.09,6.83-3.641,14.43-1.12,21.361c2.14,5.64,9.44,7.069,14.63,5.18
		c7.4-2.63,11.811-10.06,13.641-17.34c1.51-6.39,2.47-13.521-0.471-19.65C1097.971,50.016,1091.29,49.186,1086.42,50.916
		 M486.24,35.655c7.21-0.82,14.56-0.57,21.77,0.19c-0.08,3.22-0.61,6.41-0.91,9.61c4.34-2.2,8.35-5.06,12.9-6.85
		c5.37-2.16,11.49-2.77,17.07-1.11c4.46,1.37,6.95,5.61,10.3,8.52c3.8-1.24,7.02-3.69,10.57-5.47c6.61-3.48,14.37-5.45,21.79-3.75
		c4.58,1.02,8.88,4.02,10.75,8.42c1.43,3.26,1.1,6.92,0.77,10.37c-1.5,12.87-3.74,25.64-5.78,38.43c-0.83,4.851-1.1,9.84-2.71,14.53
		c-7.15,0.771-14.4,0.47-21.54-0.25c0.06-2.84,0.48-5.64,0.96-8.43c1.96-11.19,3.58-22.431,5.49-33.621
		c0.44-3.43,1.2-7.02,0.19-10.42c-0.76-2.48-3.57-3.42-5.91-3.47c-4.11-0.06-8.22,1.27-11.61,3.55c-2.85,1.79-3.11,5.46-3.71,8.44
		c-1.82,12.641-4.13,25.191-5.95,37.831c-0.29,2-0.7,3.98-1.25,5.92c-7.22,1.25-14.65,0.8-21.92,0.28
		c0.32-5.33,1.65-10.521,2.47-15.79c1.45-8.94,3.12-17.84,4.37-26.811c0.27-3.08,0.82-6.63-1.19-9.27
		c-1.95-2.22-5.23-1.98-7.89-1.68c-3.72,0.58-7.71,1.81-10.14,4.87c-1.85,2.78-2.09,6.23-2.67,9.43
		c-1.39,10.01-3.45,19.911-4.95,29.901c-0.49,3.149-0.96,6.31-1.92,9.35c-7.02,0.78-14.15,0.229-21.17-0.41
		c-0.11-2.42,0.18-4.83,0.56-7.22c2.84-16.311,5.35-32.691,8.12-49.021C484.08,46.365,484.34,40.815,486.24,35.655 M997.08,38.635
		c10.97-4.24,23.19-4.42,34.561-1.79c3.439,0.84,6.949,1.8,9.92,3.83c-0.91,6.79-2.721,13.48-4.87,19.98
		c-5.55-1.94-9.57-6.8-15.28-8.38c-7.84-2.12-17.08-0.06-22.48,6.23c-4.789,5.55-6.149,13.3-5.479,20.42
		c0.38,3.83,1.42,8.13,4.85,10.38c4.631,3.03,10.561,3.55,15.891,2.45c6.78-1.479,12.12-6.36,18.67-8.45
		c-0.69,5.91-1.92,11.78-3.72,17.44c-0.67,2.91-3.681,4-6.16,4.88c-9.33,3.1-19.46,4.01-29.141,2.08
		c-4.31-0.87-8.59-2.25-12.279-4.69c-6.79-4.51-11.34-12.239-11.87-20.39c-0.7-10.31,2.149-20.86,7.91-29.44
		C982.21,46.286,989.41,41.525,997.08,38.635 M411.79,43.396c11.32-7.17,25.52-8.63,38.48-6.06c6.03,1.22,12.02,4.19,15.57,9.39
		c3.6,5.31,4.18,12.05,3.68,18.29c-0.42,4.12-0.9,8.379-2.84,12.101c-11.51,1.38-23.12,0.04-34.66,0.31
		c-5.67,0.17-11.36-0.09-16.99,0.601c0.23,3.56,1.22,7.199,3.5,10.02c2.2,2.73,5.53,4.23,8.86,5.06
		c6.85,1.671,14.07,0.7,20.69-1.479c5.14-1.64,9.92-4.21,15.07-5.81c-0.69,5.59-1.72,11.18-3.46,16.539
		c-0.58,2.7-3.52,3.391-5.76,4.16c-11.96,3.44-24.76,4.73-37.01,2.16c-7.5-1.56-14.78-5.399-19.27-11.729
		c-3.76-5.301-4.74-12.011-4.7-18.36C392.99,64.755,399.97,50.826,411.79,43.396 M430.56,51.206c-6.05,1.59-10.45,6.77-12.82,12.34
		c3.63,1.19,7.5,0.61,11.25,0.66c6-0.21,12,0.35,17.99-0.05c0.45-3.73,0.28-8.19-2.78-10.85
		C440.49,50.115,435.08,50.055,430.56,51.206 M739.221,42.755c11.06-6.5,24.609-7.96,37.06-5.45c6.27,1.271,12.56,4.34,16.13,9.86
		c3.49,5.37,3.94,12.07,3.43,18.29c-0.42,4.09-0.989,8.33-3.069,11.96c-3.261,0.46-6.54,0.43-9.811,0.42
		c-13.91-0.2-27.85-0.64-41.739,0.24c0.369,3.71,1.35,7.569,3.88,10.43c2.64,2.84,6.479,4.16,10.189,4.94
		c6.55,1.38,13.311,0.06,19.58-1.99c5.03-1.63,9.72-4.14,14.73-5.84c-0.71,4.93-1.761,9.81-2.95,14.649
		c-0.561,1.61-0.79,3.69-2.48,4.54c-2.779,1.55-5.92,2.23-8.979,2.98c-11.04,2.569-22.72,3.18-33.79,0.43
		c-7.141-1.76-13.93-5.81-17.97-12.06c-3.521-5.431-4.351-12.12-4.19-18.46C719.5,63.726,727.04,49.826,739.221,42.755
		 M749.65,55.235c-2.68,2.4-4.521,5.61-5.7,8.98c4.33,0.21,8.67-0.06,13.01,0.01c5.521,0.01,11.07,0.41,16.561-0.32
		c0.22-2.87,0.09-5.91-1.29-8.51c-1.311-2.47-3.95-3.91-6.601-4.49C760.03,49.715,753.82,51.255,749.65,55.235 M840.351,36.905
		c8.439-1.23,17.31-1.05,25.399,1.92c8.15,2.97,14.5,10.49,15.71,19.13c1.21,8.43,0.101,17.18-3,25.1
		c-4.66,11.771-14.68,21.431-26.859,25.11c-6.851,2.04-14.11,2.5-21.2,1.91c-7.16-0.63-14.43-3.15-19.561-8.351
		c-4.72-4.76-6.64-11.58-7.08-18.109c-1.239-16.441,7.54-33.111,21.65-41.591C829.96,39.295,835.11,37.686,840.351,36.905
		 M846.351,51.925c-5.061,0.35-9.73,3.25-12.63,7.37c-4.471,6.27-6.091,14.13-6.33,21.72c-0.091,4.221,0.72,9.17,4.55,11.65
		c5.26,3.39,12.47,1.84,16.96-2.17c5.92-5.24,8.42-13.271,9.22-20.911c0.38-4.66,0.44-9.82-2.31-13.83
		C853.75,52.726,849.851,51.595,846.351,51.925 M349.35,37.976c8.33-0.8,17.07-0.11,24.69,3.55c6.73,3.26,11.57,9.92,12.78,17.28
		c2.56,15.261-2.65,31.91-14.29,42.29c-11.43,10.09-27.94,12.7-42.51,9.431c-6.22-1.421-12.18-4.78-15.88-10.091
		c-4.21-5.939-5.28-13.529-4.79-20.649c0.74-10.05,4.3-20.151,11.22-27.631C327.9,43.976,338.45,38.965,349.35,37.976
		 M348.44,54.016c-4.72,1.36-8.41,5.04-10.76,9.24c-3.29,5.85-4.6,12.651-4.64,19.321c0.04,3.51,0.41,7.359,2.78,10.149
		c2.73,3.15,7.36,4.051,11.31,3.091c5.29-1.261,9.57-5.24,12.15-9.921c3.38-6.14,4.69-13.28,4.49-20.23c-0.12-3.6-1-7.53-3.85-9.98
		C356.78,53.025,352.23,52.905,348.44,54.016 M85.42,44.025c11.34-6.36,25.12-7.25,37.66-4.52c7.72,1.64,14.99,7.01,17.13,14.86
		c2.14,8.05,1.271,16.871-1.76,24.57c-17.33,1.71-34.8-0.5-52.15,0.87c0.48,3.49,1.49,7.021,3.62,9.891
		c2.08,2.79,5.39,4.3,8.66,5.189c6.75,1.82,13.94,0.91,20.5-1.26c5.36-1.69,10.36-4.35,15.75-5.94
		c-0.82,5.74-1.85,11.511-3.73,17.011c-0.58,2.1-2.98,2.56-4.72,3.3c-13.29,4.22-27.87,5.45-41.4,1.59
		c-7.97-2.24-15.12-7.91-18.33-15.64C60.19,75.736,68.41,53.405,85.42,44.025 M88.98,65.516c5.31,0.75,10.68,0.66,16.03,0.69
		c4.67-0.03,9.38,0.05,14-0.79c0.35-4.62-1.04-10.27-5.88-12.02C103.45,49.496,92.56,56.365,88.98,65.516 M170.99,44.565
		c11.83-6.67,26.1-7.82,39.26-5.23c4.09,0.87,8.33,1.85,11.75,4.38c-0.77,6.81-2.55,13.54-5.02,19.93c-5.06-2.43-9.17-6.6-14.59-8.3
		c-7.85-2.37-17.2-0.34-22.71,5.93c-5.64,6.45-6.98,15.771-5.19,23.94c0.7,3.34,2.81,6.43,5.93,7.93
		c5.96,2.891,13.15,2.48,19.15-0.109c4.89-2.141,9.26-5.311,14.22-7.311c-1.03,5.94-2.13,11.91-4.1,17.61
		c-0.93,2.98-3.98,4.32-6.65,5.35c-8.14,2.94-17,3.301-25.55,2.4c-7.6-0.83-15.3-3.69-20.56-9.43c-4.59-4.931-6.24-11.82-6.61-18.37
		C149.5,67.965,157.36,52.025,170.99,44.565 M274.75,41.365c6.13-1.78,12.94-2.04,18.88,0.59c3.78,1.64,7.08,4.85,7.98,8.97
		c1.16,5.18,0.26,10.53-0.59,15.68c-2.11,11.58-4.28,23.141-6.11,34.771c-0.44,2.479-0.79,5.01-1.76,7.35
		c-1.11,1-2.75,0.801-4.12,1.04c-5.85,0.28-11.73,0.25-17.56-0.37c1.66-14.18,5.31-28.09,7.02-42.27c0.2-2.89,0.42-6.1-1.22-8.64
		c-1.91-2.41-5.39-2.37-8.17-2.1c-4.14,0.64-8.44,1.86-11.73,4.57c-1.51,1.93-1.62,4.56-2.15,6.89
		c-1.76,11.321-4.2,22.531-6.05,33.84c-0.42,2.53-0.91,5.061-1.7,7.5c-7.08,1.19-14.35,0.57-21.47,0.12
		c0.2-5.14,1.55-10.13,2.47-15.17c2.4-12.6,4.77-25.21,7.2-37.8c0.95-4.76,1.43-9.64,2.89-14.29c7.01-0.72,14.11-0.49,21.14-0.19
		c0.03,1.92,0.01,3.83,0.02,5.74C264.76,45.605,269.48,42.795,274.75,41.365 M931.03,73.156c5.92,0.01,11.85-0.71,17.76-0.13
		c1,5.12,0.601,10.37,0.66,15.56c-0.09,5.34,0.35,10.71-0.45,16.02c-5.97,0.86-12.01,0.33-18,0.391
		c-5.93-0.15-11.89,0.29-17.77-0.55c-0.63-5.28-0.03-10.591-0.021-15.87c0.09-4.96-0.47-9.931,0-14.871
		C919.11,72.875,925.09,73.316,931.03,73.156L931.03,73.156z"/>
</g>
</svg>
